<?xml version="1.0" encoding="utf-8"?>
<!-- Generator: Adobe Illustrator 21.1.0, SVG Export Plug-In . SVG Version: 6.00 Build 0)  -->
<svg version="1.1" id="Layer_1" xmlns="http://www.w3.org/2000/svg" xmlns:xlink="http://www.w3.org/1999/xlink" x="0px" y="0px"
	 viewBox="0 0 80 80" style="enable-background:new 0 0 80 80;" xml:space="preserve">
<style type="text/css">
	.st0{fill:#FFFFFF;stroke:#FFFC;stroke-width:5;stroke-miterlimit:10;}
</style>
<path class="st0" d="M67.5,42.5h-56c-1.1,0-2-0.9-2-2v0c0-1.1,0.9-2,2-2h56c1.1,0,2,0.9,2,2v0C69.5,41.6,68.6,42.5,67.5,42.5z"/>
<path class="st0" d="M68.5,15.5h-56c-1.1,0-2-0.9-2-2v0c0-1.1,0.9-2,2-2h56c1.1,0,2,0.9,2,2v0C70.5,14.6,69.6,15.5,68.5,15.5z"/>
<path class="st0" d="M66.5,69.5h-56c-1.1,0-2-0.9-2-2l0,0c0-1.1,0.9-2,2-2h56c1.1,0,2,0.9,2,2l0,0C68.5,68.6,67.6,69.5,66.5,69.5z"
	/>
</svg>
